{
    "asset" : {
        "generator" : "Khronos glTF Blender I/O v1.5.17",
        "version" : "2.0"
    },
    "scene" : 0,
    "scenes" : [
        {
            "name" : "Scene",
            "nodes" : [
                0
            ]
        }
    ],
    "nodes" : [
        {
            "mesh" : 0,
            "name" : "DVAGun"
        }
    ],
    "materials" : [
        {
            "doubleSided" : true,
            "name" : "UVGun",
            "pbrMetallicRoughness" : {
                "baseColorTexture" : {
                    "index" : 0
                },
                "metallicFactor" : 0,
                "roughnessFactor" : 0.5
            }
        },
        {
            "doubleSided" : true,
            "emissiveFactor" : [
                0.1148485541343689,
                1,
                0.4394896626472473
            ],
            "name" : "Material.015",
            "pbrMetallicRoughness" : {
                "baseColorFactor" : [
                    0.800000011920929,
                    0.800000011920929,
                    0.800000011920929,
                    1
                ],
                "metallicFactor" : 0,
                "roughnessFactor" : 0.5
            }
        }
    ],
    "meshes" : [
        {
            "name" : "Cube.002",
            "primitives" : [
                {
                    "attributes" : {
                        "POSITION" : 0,
                        "NORMAL" : 1,
                        "TEXCOORD_0" : 2
                    },
                    "indices" : 3,
                    "material" : 0
                },
                {
                    "attributes" : {
                        "POSITION" : 4,
                        "NORMAL" : 5,
                        "TEXCOORD_0" : 6
                    },
                    "indices" : 7,
                    "material" : 1
                }
            ]
        }
    ],
    "textures" : [
        {
            "sampler" : 0,
            "source" : 0
        }
    ],
    "images" : [
        {
            "bufferView" : 4,
            "mimeType" : "image/png",
            "name" : "DVAGun"
        }
    ],
    "accessors" : [
        {
            "bufferView" : 0,
            "componentType" : 5126,
            "count" : 3145,
            "max" : [
                0.36479949951171875,
                1.6300323009490967,
                2.03802490234375
            ],
            "min" : [
                -0.36479949951171875,
                -2.055011510848999,
                -1.7792869806289673
            ],
            "type" : "VEC3"
        },
        {
            "bufferView" : 1,
            "componentType" : 5126,
            "count" : 3145,
            "type" : "VEC3"
        },
        {
            "bufferView" : 2,
            "componentType" : 5126,
            "count" : 3145,
            "type" : "VEC2"
        },
        {
            "bufferView" : 3,
            "componentType" : 5123,
            "count" : 14244,
            "type" : "SCALAR"
        },
        {
            "bufferView" : 5,
            "componentType" : 5126,
            "count" : 104,
            "max" : [
                0.2729279696941376,
                1.3927398920059204,
                1.8366589546203613
            ],
            "min" : [
                -0.2729279696941376,
                0.28500351309776306,
                -0.5102380514144897
            ],
            "type" : "VEC3"
        },
        {
            "bufferView" : 6,
            "componentType" : 5126,
            "count" : 104,
            "type" : "VEC3"
        },
        {
            "bufferView" : 7,
            "componentType" : 5126,
            "count" : 104,
            "type" : "VEC2"
        },
        {
            "bufferView" : 8,
            "componentType" : 5123,
            "count" : 456,
            "type" : "SCALAR"
        }
    ],
    "bufferViews" : [
        {
            "buffer" : 0,
            "byteLength" : 37740,
            "byteOffset" : 0
        },
        {
            "buffer" : 0,
            "byteLength" : 37740,
            "byteOffset" : 37740
        },
        {
            "buffer" : 0,
            "byteLength" : 25160,
            "byteOffset" : 75480
        },
        {
            "buffer" : 0,
            "byteLength" : 28488,
            "byteOffset" : 100640
        },
        {
            "buffer" : 0,
            "byteLength" : 149403,
            "byteOffset" : 129128
        },
        {
            "buffer" : 0,
            "byteLength" : 1248,
            "byteOffset" : 278532
        },
        {
            "buffer" : 0,
            "byteLength" : 1248,
            "byteOffset" : 279780
        },
        {
            "buffer" : 0,
            "byteLength" : 832,
            "byteOffset" : 281028
        },
        {
            "buffer" : 0,
            "byteLength" : 912,
            "byteOffset" : 281860
        }
    ],
    "samplers" : [
        {
            "magFilter" : 9729,
            "minFilter" : 9987
        }
    ],
    "buffers" : [
        {
            "byteLength" : 282772,
            "uri" : "data:application/octet-stream;base64,"
        }
    ]
}
