{
    "asset" : {
        "generator" : "Khronos glTF Blender I/O v1.5.17",
        "version" : "2.0"
    },
    "scene" : 0,
    "scenes" : [
        {
            "name" : "Scene",
            "nodes" : [
                0,
                1
            ]
        }
    ],
    "nodes" : [
        {
            "mesh" : 0,
            "name" : "Cylinder_Material.001_0",
            "translation" : [
                0,
                0,
                -0.09785062819719315
            ]
        },
        {
            "mesh" : 1,
            "name" : "Cylinder_Material.002_0",
            "translation" : [
                0,
                0,
                -0.09785062819719315
            ]
        }
    ],
    "materials" : [
        {
            "doubleSided" : true,
            "emissiveFactor" : [
                0.7758224010467529,
                0.28314879536628723,
                0.008568125776946545
            ],
            "name" : "Material.001",
            "pbrMetallicRoughness" : {
                "baseColorFactor" : [
                    0.7758222222328186,
                    0.28314873576164246,
                    0.008568125776946545,
                    1
                ],
                "metallicFactor" : 0.36818182468414307,
                "roughnessFactor" : 0.3145454525947571
            }
        },
        {
            "doubleSided" : true,
            "emissiveFactor" : [
                0.07036010175943375,
                0.07421357929706573,
                0.08228270709514618
            ],
            "name" : "Material.002",
            "pbrMetallicRoughness" : {
                "baseColorFactor" : [
                    0.07898982614278793,
                    0.08287850767374039,
                    0.08687663823366165,
                    1
                ],
                "metallicFactor" : 0.16363635659217834,
                "roughnessFactor" : 0.2836363613605499
            }
        }
    ],
    "meshes" : [
        {
            "name" : "Cylinder_Material.001_0",
            "primitives" : [
                {
                    "attributes" : {
                        "POSITION" : 0,
                        "NORMAL" : 1
                    },
                    "indices" : 2,
                    "material" : 0
                }
            ]
        },
        {
            "name" : "Cylinder_Material.002_0",
            "primitives" : [
                {
                    "attributes" : {
                        "POSITION" : 3,
                        "NORMAL" : 4
                    },
                    "indices" : 5,
                    "material" : 1
                }
            ]
        }
    ],
    "accessors" : [
        {
            "bufferView" : 0,
            "componentType" : 5126,
            "count" : 1248,
            "max" : [
                0.6223100423812866,
                1,
                0.18346905708312988
            ],
            "min" : [
                -0.6201363205909729,
                0.5572160482406616,
                0
            ],
            "type" : "VEC3"
        },
        {
            "bufferView" : 1,
            "componentType" : 5126,
            "count" : 1248,
            "type" : "VEC3"
        },
        {
            "bufferView" : 2,
            "componentType" : 5123,
            "count" : 7476,
            "type" : "SCALAR"
        },
        {
            "bufferView" : 3,
            "componentType" : 5126,
            "count" : 4348,
            "max" : [
                1,
                0.7340812683105469,
                0.18346905708312988
            ],
            "min" : [
                -1,
                -1,
                0
            ],
            "type" : "VEC3"
        },
        {
            "bufferView" : 4,
            "componentType" : 5126,
            "count" : 4348,
            "type" : "VEC3"
        },
        {
            "bufferView" : 5,
            "componentType" : 5123,
            "count" : 24948,
            "type" : "SCALAR"
        }
    ],
    "bufferViews" : [
        {
            "buffer" : 0,
            "byteLength" : 14976,
            "byteOffset" : 0
        },
        {
            "buffer" : 0,
            "byteLength" : 14976,
            "byteOffset" : 14976
        },
        {
            "buffer" : 0,
            "byteLength" : 14952,
            "byteOffset" : 29952
        },
        {
            "buffer" : 0,
            "byteLength" : 52176,
            "byteOffset" : 44904
        },
        {
            "buffer" : 0,
            "byteLength" : 52176,
            "byteOffset" : 97080
        },
        {
            "buffer" : 0,
            "byteLength" : 49896,
            "byteOffset" : 149256
        }
    ],
    "buffers" : [
        {
            "byteLength" : 199152,
            "uri" : "data:application/octet-stream;base64,"
        }
    ]
}
