{
    "asset" : {
        "generator" : "Khronos glTF Blender I/O v1.5.17",
        "version" : "2.0"
    },
    "scene" : 0,
    "scenes" : [
        {
            "name" : "Scene",
            "nodes" : [
                15,
                16,
                17
            ]
        }
    ],
    "nodes" : [
        {
            "mesh" : 0,
            "name" : "Body_StingrayPBS1_0"
        },
        {
            "children" : [
                0
            ],
            "name" : "Body"
        },
        {
            "mesh" : 1,
            "name" : "chamber_StingrayPBS1_0"
        },
        {
            "children" : [
                2
            ],
            "name" : "chamber"
        },
        {
            "mesh" : 2,
            "name" : "magazine_StingrayPBS1_0"
        },
        {
            "children" : [
                4
            ],
            "name" : "magazine"
        },
        {
            "mesh" : 3,
            "name" : "magazine_release_StingrayPBS1_0"
        },
        {
            "children" : [
                6
            ],
            "name" : "magazine_release"
        },
        {
            "mesh" : 4,
            "name" : "safety_low_StingrayPBS1_0"
        },
        {
            "children" : [
                8
            ],
            "name" : "safety_low"
        },
        {
            "mesh" : 5,
            "name" : "trigger__StingrayPBS1_0"
        },
        {
            "children" : [
                10
            ],
            "name" : "trigger_"
        },
        {
            "children" : [
                1,
                3,
                5,
                7,
                9,
                11
            ],
            "name" : "RootNode"
        },
        {
            "children" : [
                12
            ],
            "name" : "7379ea21fba14b68bdc3aedb68ba6f43.fbx",
            "rotation" : [
                0.7071068286895752,
                0,
                0,
                0.7071068286895752
            ]
        },
        {
            "children" : [
                13
            ],
            "name" : "RootNode (model correction matrix)"
        },
        {
            "children" : [
                14
            ],
            "name" : "RootNode (gltf orientation matrix)",
            "rotation" : [
                -0.7071068286895752,
                0,
                0,
                0.7071068286895752
            ]
        },
        {
            "name" : "Light",
            "rotation" : [
                0.16907575726509094,
                0.7558803558349609,
                -0.27217137813568115,
                0.570947527885437
            ],
            "translation" : [
                4.076245307922363,
                5.903861999511719,
                -1.0054539442062378
            ]
        },
        {
            "name" : "Camera",
            "rotation" : [
                0.483536034822464,
                0.33687159419059753,
                -0.20870360732078552,
                0.7804827094078064
            ],
            "translation" : [
                7.358891487121582,
                4.958309173583984,
                6.925790786743164
            ]
        }
    ],
    "materials" : [
        {
            "doubleSided" : true,
            "name" : "StingrayPBS1",
            "normalTexture" : {
                "index" : 0
            },
            "pbrMetallicRoughness" : {
                "baseColorTexture" : {
                    "index" : 1
                },
                "metallicRoughnessTexture" : {
                    "index" : 2
                }
            }
        }
    ],
    "meshes" : [
        {
            "name" : "Body_StingrayPBS1_0",
            "primitives" : [
                {
                    "attributes" : {
                        "POSITION" : 0,
                        "NORMAL" : 1,
                        "TEXCOORD_0" : 2,
                        "TEXCOORD_1" : 3,
                        "TEXCOORD_2" : 4,
                        "TEXCOORD_3" : 5,
                        "TEXCOORD_4" : 6
                    },
                    "indices" : 7,
                    "material" : 0
                }
            ]
        },
        {
            "name" : "chamber_StingrayPBS1_0",
            "primitives" : [
                {
                    "attributes" : {
                        "POSITION" : 8,
                        "NORMAL" : 9,
                        "TEXCOORD_0" : 10,
                        "TEXCOORD_1" : 11,
                        "TEXCOORD_2" : 12,
                        "TEXCOORD_3" : 13,
                        "TEXCOORD_4" : 14
                    },
                    "indices" : 15,
                    "material" : 0
                }
            ]
        },
        {
            "name" : "magazine_StingrayPBS1_0",
            "primitives" : [
                {
                    "attributes" : {
                        "POSITION" : 16,
                        "NORMAL" : 17,
                        "TEXCOORD_0" : 18,
                        "TEXCOORD_1" : 19,
                        "TEXCOORD_2" : 20,
                        "TEXCOORD_3" : 21,
                        "TEXCOORD_4" : 22
                    },
                    "indices" : 23,
                    "material" : 0
                }
            ]
        },
        {
            "name" : "magazine_release_StingrayPBS1_0",
            "primitives" : [
                {
                    "attributes" : {
                        "POSITION" : 24,
                        "NORMAL" : 25,
                        "TEXCOORD_0" : 26,
                        "TEXCOORD_1" : 27,
                        "TEXCOORD_2" : 28,
                        "TEXCOORD_3" : 29,
                        "TEXCOORD_4" : 30
                    },
                    "indices" : 31,
                    "material" : 0
                }
            ]
        },
        {
            "name" : "safety_low_StingrayPBS1_0",
            "primitives" : [
                {
                    "attributes" : {
                        "POSITION" : 32,
                        "NORMAL" : 33,
                        "TEXCOORD_0" : 34,
                        "TEXCOORD_1" : 35,
                        "TEXCOORD_2" : 36,
                        "TEXCOORD_3" : 37,
                        "TEXCOORD_4" : 38
                    },
                    "indices" : 39,
                    "material" : 0
                }
            ]
        },
        {
            "name" : "trigger__StingrayPBS1_0",
            "primitives" : [
                {
                    "attributes" : {
                        "POSITION" : 40,
                        "NORMAL" : 41,
                        "TEXCOORD_0" : 42,
                        "TEXCOORD_1" : 43,
                        "TEXCOORD_2" : 44,
                        "TEXCOORD_3" : 45,
                        "TEXCOORD_4" : 46
                    },
                    "indices" : 47,
                    "material" : 0
                }
            ]
        }
    ],
    "textures" : [
        {
            "sampler" : 0,
            "source" : 0
        },
        {
            "sampler" : 0,
            "source" : 1
        },
        {
            "sampler" : 0,
            "source" : 2
        }
    ],
    "images" : [
        {
            "bufferView" : 8,
            "mimeType" : "image/png",
            "name" : "StingrayPBS1_normal"
        },
        {
            "bufferView" : 9,
            "mimeType" : "image/jpeg",
            "name" : "StingrayPBS1_baseColor"
        },
        {
            "bufferView" : 10,
            "mimeType" : "image/png",
            "name" : "StingrayPBS1_metallicRoughness"
        }
    ],
    "accessors" : [
        {
            "bufferView" : 0,
            "componentType" : 5126,
            "count" : 9025,
            "max" : [
                40.05372619628906,
                13.57448673248291,
                4.239575386047363
            ],
            "min" : [
                -18.311704635620117,
                -15.770700454711914,
                -4.3010358810424805
            ],
            "type" : "VEC3"
        },
        {
            "bufferView" : 1,
            "componentType" : 5126,
            "count" : 9025,
            "type" : "VEC3"
        },
        {
            "bufferView" : 2,
            "componentType" : 5126,
            "count" : 9025,
            "type" : "VEC2"
        },
        {
            "bufferView" : 3,
            "componentType" : 5126,
            "count" : 9025,
            "type" : "VEC2"
        },
        {
            "bufferView" : 4,
            "componentType" : 5126,
            "count" : 9025,
            "type" : "VEC2"
        },
        {
            "bufferView" : 5,
            "componentType" : 5126,
            "count" : 9025,
            "type" : "VEC2"
        },
        {
            "bufferView" : 6,
            "componentType" : 5126,
            "count" : 9025,
            "type" : "VEC2"
        },
        {
            "bufferView" : 7,
            "componentType" : 5123,
            "count" : 21798,
            "type" : "SCALAR"
        },
        {
            "bufferView" : 11,
            "componentType" : 5126,
            "count" : 504,
            "max" : [
                10.747657775878906,
                12.424861907958984,
                2.297475814819336
            ],
            "min" : [
                -0.3298487067222595,
                5.164600372314453,
                -3.753239631652832
            ],
            "type" : "VEC3"
        },
        {
            "bufferView" : 12,
            "componentType" : 5126,
            "count" : 504,
            "type" : "VEC3"
        },
        {
            "bufferView" : 13,
            "componentType" : 5126,
            "count" : 504,
            "type" : "VEC2"
        },
        {
            "bufferView" : 14,
            "componentType" : 5126,
            "count" : 504,
            "type" : "VEC2"
        },
        {
            "bufferView" : 15,
            "componentType" : 5126,
            "count" : 504,
            "type" : "VEC2"
        },
        {
            "bufferView" : 16,
            "componentType" : 5126,
            "count" : 504,
            "type" : "VEC2"
        },
        {
            "bufferView" : 17,
            "componentType" : 5126,
            "count" : 504,
            "type" : "VEC2"
        },
        {
            "bufferView" : 18,
            "componentType" : 5123,
            "count" : 1245,
            "type" : "SCALAR"
        },
        {
            "bufferView" : 19,
            "componentType" : 5126,
            "count" : 486,
            "max" : [
                13.265873908996582,
                2.72906494140625,
                2.690192222595215
            ],
            "min" : [
                6.621094703674316,
                -29.783039093017578,
                -1.761479377746582
            ],
            "type" : "VEC3"
        },
        {
            "bufferView" : 20,
            "componentType" : 5126,
            "count" : 486,
            "type" : "VEC3"
        },
        {
            "bufferView" : 21,
            "componentType" : 5126,
            "count" : 486,
            "type" : "VEC2"
        },
        {
            "bufferView" : 22,
            "componentType" : 5126,
            "count" : 486,
            "type" : "VEC2"
        },
        {
            "bufferView" : 23,
            "componentType" : 5126,
            "count" : 486,
            "type" : "VEC2"
        },
        {
            "bufferView" : 24,
            "componentType" : 5126,
            "count" : 486,
            "type" : "VEC2"
        },
        {
            "bufferView" : 25,
            "componentType" : 5126,
            "count" : 486,
            "type" : "VEC2"
        },
        {
            "bufferView" : 26,
            "componentType" : 5123,
            "count" : 1356,
            "type" : "SCALAR"
        },
        {
            "bufferView" : 27,
            "componentType" : 5126,
            "count" : 30,
            "max" : [
                6.512456893920898,
                -3.733963966369629,
                0.8443293571472168
            ],
            "min" : [
                5.510639190673828,
                -7.465951919555664,
                -0.16932392120361328
            ],
            "type" : "VEC3"
        },
        {
            "bufferView" : 28,
            "componentType" : 5126,
            "count" : 30,
            "type" : "VEC3"
        },
        {
            "bufferView" : 29,
            "componentType" : 5126,
            "count" : 30,
            "type" : "VEC2"
        },
        {
            "bufferView" : 30,
            "componentType" : 5126,
            "count" : 30,
            "type" : "VEC2"
        },
        {
            "bufferView" : 31,
            "componentType" : 5126,
            "count" : 30,
            "type" : "VEC2"
        },
        {
            "bufferView" : 32,
            "componentType" : 5126,
            "count" : 30,
            "type" : "VEC2"
        },
        {
            "bufferView" : 33,
            "componentType" : 5126,
            "count" : 30,
            "type" : "VEC2"
        },
        {
            "bufferView" : 34,
            "componentType" : 5123,
            "count" : 30,
            "type" : "SCALAR"
        },
        {
            "bufferView" : 35,
            "componentType" : 5126,
            "count" : 142,
            "max" : [
                -5.515763282775879,
                5.765588760375977,
                -2.836120367050171
            ],
            "min" : [
                -9.446146965026855,
                3.7346630096435547,
                -3.5634636878967285
            ],
            "type" : "VEC3"
        },
        {
            "bufferView" : 36,
            "componentType" : 5126,
            "count" : 142,
            "type" : "VEC3"
        },
        {
            "bufferView" : 37,
            "componentType" : 5126,
            "count" : 142,
            "type" : "VEC2"
        },
        {
            "bufferView" : 38,
            "componentType" : 5126,
            "count" : 142,
            "type" : "VEC2"
        },
        {
            "bufferView" : 39,
            "componentType" : 5126,
            "count" : 142,
            "type" : "VEC2"
        },
        {
            "bufferView" : 40,
            "componentType" : 5126,
            "count" : 142,
            "type" : "VEC2"
        },
        {
            "bufferView" : 41,
            "componentType" : 5126,
            "count" : 142,
            "type" : "VEC2"
        },
        {
            "bufferView" : 42,
            "componentType" : 5123,
            "count" : 348,
            "type" : "SCALAR"
        },
        {
            "bufferView" : 43,
            "componentType" : 5126,
            "count" : 105,
            "max" : [
                2.5406126976013184,
                3.7735977172851562,
                0.34039974212646484
            ],
            "min" : [
                -0.8559324741363525,
                -0.9953269958496094,
                -0.33678627014160156
            ],
            "type" : "VEC3"
        },
        {
            "bufferView" : 44,
            "componentType" : 5126,
            "count" : 105,
            "type" : "VEC3"
        },
        {
            "bufferView" : 45,
            "componentType" : 5126,
            "count" : 105,
            "type" : "VEC2"
        },
        {
            "bufferView" : 46,
            "componentType" : 5126,
            "count" : 105,
            "type" : "VEC2"
        },
        {
            "bufferView" : 47,
            "componentType" : 5126,
            "count" : 105,
            "type" : "VEC2"
        },
        {
            "bufferView" : 48,
            "componentType" : 5126,
            "count" : 105,
            "type" : "VEC2"
        },
        {
            "bufferView" : 49,
            "componentType" : 5126,
            "count" : 105,
            "type" : "VEC2"
        },
        {
            "bufferView" : 50,
            "componentType" : 5123,
            "count" : 150,
            "type" : "SCALAR"
        }
    ],
    "bufferViews" : [
        {
            "buffer" : 0,
            "byteLength" : 108300,
            "byteOffset" : 0
        },
        {
            "buffer" : 0,
            "byteLength" : 108300,
            "byteOffset" : 108300
        },
        {
            "buffer" : 0,
            "byteLength" : 72200,
            "byteOffset" : 216600
        },
        {
            "buffer" : 0,
            "byteLength" : 72200,
            "byteOffset" : 288800
        },
        {
            "buffer" : 0,
            "byteLength" : 72200,
            "byteOffset" : 361000
        },
        {
            "buffer" : 0,
            "byteLength" : 72200,
            "byteOffset" : 433200
        },
        {
            "buffer" : 0,
            "byteLength" : 72200,
            "byteOffset" : 505400
        },
        {
            "buffer" : 0,
            "byteLength" : 43596,
            "byteOffset" : 577600
        },
        {
            "buffer" : 0,
            "byteLength" : 651849,
            "byteOffset" : 621196
        },
        {
            "buffer" : 0,
            "byteLength" : 91034,
            "byteOffset" : 1273048
        },
        {
            "buffer" : 0,
            "byteLength" : 472886,
            "byteOffset" : 1364084
        },
        {
            "buffer" : 0,
            "byteLength" : 6048,
            "byteOffset" : 1836972
        },
        {
            "buffer" : 0,
            "byteLength" : 6048,
            "byteOffset" : 1843020
        },
        {
            "buffer" : 0,
            "byteLength" : 4032,
            "byteOffset" : 1849068
        },
        {
            "buffer" : 0,
            "byteLength" : 4032,
            "byteOffset" : 1853100
        },
        {
            "buffer" : 0,
            "byteLength" : 4032,
            "byteOffset" : 1857132
        },
        {
            "buffer" : 0,
            "byteLength" : 4032,
            "byteOffset" : 1861164
        },
        {
            "buffer" : 0,
            "byteLength" : 4032,
            "byteOffset" : 1865196
        },
        {
            "buffer" : 0,
            "byteLength" : 2490,
            "byteOffset" : 1869228
        },
        {
            "buffer" : 0,
            "byteLength" : 5832,
            "byteOffset" : 1871720
        },
        {
            "buffer" : 0,
            "byteLength" : 5832,
            "byteOffset" : 1877552
        },
        {
            "buffer" : 0,
            "byteLength" : 3888,
            "byteOffset" : 1883384
        },
        {
            "buffer" : 0,
            "byteLength" : 3888,
            "byteOffset" : 1887272
        },
        {
            "buffer" : 0,
            "byteLength" : 3888,
            "byteOffset" : 1891160
        },
        {
            "buffer" : 0,
            "byteLength" : 3888,
            "byteOffset" : 1895048
        },
        {
            "buffer" : 0,
            "byteLength" : 3888,
            "byteOffset" : 1898936
        },
        {
            "buffer" : 0,
            "byteLength" : 2712,
            "byteOffset" : 1902824
        },
        {
            "buffer" : 0,
            "byteLength" : 360,
            "byteOffset" : 1905536
        },
        {
            "buffer" : 0,
            "byteLength" : 360,
            "byteOffset" : 1905896
        },
        {
            "buffer" : 0,
            "byteLength" : 240,
            "byteOffset" : 1906256
        },
        {
            "buffer" : 0,
            "byteLength" : 240,
            "byteOffset" : 1906496
        },
        {
            "buffer" : 0,
            "byteLength" : 240,
            "byteOffset" : 1906736
        },
        {
            "buffer" : 0,
            "byteLength" : 240,
            "byteOffset" : 1906976
        },
        {
            "buffer" : 0,
            "byteLength" : 240,
            "byteOffset" : 1907216
        },
        {
            "buffer" : 0,
            "byteLength" : 60,
            "byteOffset" : 1907456
        },
        {
            "buffer" : 0,
            "byteLength" : 1704,
            "byteOffset" : 1907516
        },
        {
            "buffer" : 0,
            "byteLength" : 1704,
            "byteOffset" : 1909220
        },
        {
            "buffer" : 0,
            "byteLength" : 1136,
            "byteOffset" : 1910924
        },
        {
            "buffer" : 0,
            "byteLength" : 1136,
            "byteOffset" : 1912060
        },
        {
            "buffer" : 0,
            "byteLength" : 1136,
            "byteOffset" : 1913196
        },
        {
            "buffer" : 0,
            "byteLength" : 1136,
            "byteOffset" : 1914332
        },
        {
            "buffer" : 0,
            "byteLength" : 1136,
            "byteOffset" : 1915468
        },
        {
            "buffer" : 0,
            "byteLength" : 696,
            "byteOffset" : 1916604
        },
        {
            "buffer" : 0,
            "byteLength" : 1260,
            "byteOffset" : 1917300
        },
        {
            "buffer" : 0,
            "byteLength" : 1260,
            "byteOffset" : 1918560
        },
        {
            "buffer" : 0,
            "byteLength" : 840,
            "byteOffset" : 1919820
        },
        {
            "buffer" : 0,
            "byteLength" : 840,
            "byteOffset" : 1920660
        },
        {
            "buffer" : 0,
            "byteLength" : 840,
            "byteOffset" : 1921500
        },
        {
            "buffer" : 0,
            "byteLength" : 840,
            "byteOffset" : 1922340
        },
        {
            "buffer" : 0,
            "byteLength" : 840,
            "byteOffset" : 1923180
        },
        {
            "buffer" : 0,
            "byteLength" : 300,
            "byteOffset" : 1924020
        }
    ],
    "samplers" : [
        {
            "magFilter" : 9729,
            "minFilter" : 9987
        }
    ],
    "buffers" : [
        {
            "byteLength" : 1924320,
            "uri" : "data:application/octet-stream;base64,"
        }
    ]
}
